<svg xmlns="http://www.w3.org/2000/svg" viewBox="0 0 24 23.99"><defs><style>.a{fill:#282828;}.b{fill:none;}</style></defs><title>linkedin</title><path class="a" d="M109.49,257.17V236.32a.18.18,0,0,0,.05-.07,1.56,1.56,0,0,1,.44-.92,2.3,2.3,0,0,1,.93-.57H132s0,0,0,0a1.83,1.83,0,0,1,1.4,1.85q0,9.9,0,19.78c0,.28,0,.56,0,.84a1.75,1.75,0,0,1-1.59,1.45H111.14a1.54,1.54,0,0,1-1.34-.79A4.09,4.09,0,0,1,109.49,257.17Zm12.86-2v-.28c0-1.84,0-3.68,0-5.52a6.12,6.12,0,0,1,.13-1.2,1.78,1.78,0,0,1,1-1.39,2.57,2.57,0,0,1,1.25-.17,1.44,1.44,0,0,1,1.32,1,4.2,4.2,0,0,1,.24,1.26c0,2,0,4,0,6v.27h3.48c0-.07,0-.13,0-.18,0-1.37,0-2.73,0-4.1,0-1.1,0-2.19-.08-3.29a6.06,6.06,0,0,0-.36-1.78,3.16,3.16,0,0,0-2.07-2.05,5,5,0,0,0-2.69-.16,3.52,3.52,0,0,0-2,1.25l-.38.49h0v-1.5h-3.36v11.33Zm-5.77-11.33h-3.47v11.33h3.47Zm.28-3.68a2.06,2.06,0,0,0-1.92-2,2,2,0,0,0-2.14,2,2,2,0,1,0,4.06,0Z" transform="translate(-109.49 -234.76)"/><path class="b" d="M109.49,257.17a4.09,4.09,0,0,0,.31.75,1.54,1.54,0,0,0,1.34.79h20.67a1.75,1.75,0,0,0,1.59-1.45c0-.28,0-.56,0-.84q0-9.88,0-19.78a1.83,1.83,0,0,0-1.4-1.85s0,0,0,0h1.46v24h-24Z" transform="translate(-109.49 -234.76)"/><path class="b" d="M110.91,234.76a2.3,2.3,0,0,0-.93.57,1.56,1.56,0,0,0-.44.92.18.18,0,0,1-.05.07v-1.56Z" transform="translate(-109.49 -234.76)"/><path class="b" d="M122.35,255.13h-3.48V243.8h3.36v1.5h0l.38-.49a3.52,3.52,0,0,1,2-1.25,5,5,0,0,1,2.69.16,3.16,3.16,0,0,1,2.07,2.05,6.06,6.06,0,0,1,.36,1.78c0,1.1.08,2.19.08,3.29,0,1.37,0,2.73,0,4.1,0,.05,0,.11,0,.18h-3.48v-.27c0-2,0-4,0-6a4.2,4.2,0,0,0-.24-1.26,1.44,1.44,0,0,0-1.32-1,2.57,2.57,0,0,0-1.25.17,1.78,1.78,0,0,0-1,1.39,6.12,6.12,0,0,0-.13,1.2c0,1.84,0,3.68,0,5.52Z" transform="translate(-109.49 -234.76)"/><path class="b" d="M116.58,243.8v11.33h-3.47V243.8Z" transform="translate(-109.49 -234.76)"/><path class="b" d="M116.86,240.12a2,2,0,1,1-4.06,0,2,2,0,0,1,2.14-2A2.06,2.06,0,0,1,116.86,240.12Z" transform="translate(-109.49 -234.76)"/></svg>