<svg xmlns="http://www.w3.org/2000/svg" viewBox="0 0 24 24.62"><defs><style>.a{fill:none;}.b{fill:#282828;}</style></defs><title>x</title><path class="a" d="M286,409.14a10.71,10.71,0,0,1,2.48,0H310v24.52a.41.41,0,0,0-.07-.11l-.95-1.39L308,430.6l-1.39-2L305.49,427l-1.4-2-1-1.4-1.5-2.17-1.1-1.6-.19-.29.05-.07,1-1.15,1.7-2,1.26-1.46,1.89-2.19,1.44-1.68,1.54-1.79s0,0,0-.06a6.15,6.15,0,0,0-2.15.05l-1.3,1.52L304,412.83l-1.25,1.46-1.89,2.2-1.37,1.59-.06.06-6.19-9C290.81,409.13,288.42,409.1,286,409.14Z" transform="translate(-286.03 -409.05)"/><path class="b" d="M286,409.14c2.48,0,4.78,0,7.17,0l6.19,9,.06-.06,1.37-1.59,1.89-2.2,1.25-1.46,1.83-2.12,1.3-1.52c.6,0,1.85-.05,2.15-.05,0,0,0,0,0,.06L307.67,411l-1.44,1.68-1.89,2.19-1.26,1.46-1.7,2-1,1.15-.05.07.19.29,1.1,1.6,1.5,2.17,1,1.4,1.4,2,1.07,1.55,1.39,2,1.06,1.54.95,1.39a.41.41,0,0,1,.07.11v0h-7.13c-.27-.41-.55-.81-.83-1.21L301,430.86l-1.59-2.32-1.11-1.61-1.73-2.52c-.05-.09-.12-.17-.19-.28l0,.07-.77.9-1.89,2.19L292.21,429l-1.69,2-1.39,1.61-1,1.12h-2.08s0,0-.06,0a.24.24,0,0,0,.08-.06l1.75-2,2-2.33,1.81-2.11,2.06-2.4,1.4-1.62.27-.32-.36-.54-1.3-1.88L292.8,419l-1.29-1.88-.95-1.38-1.29-1.88-.95-1.38L287,410.58a6.88,6.88,0,0,0-1-1.42Zm21.11,23-.07-.1-1.38-2c-.5-.71-1-1.42-1.49-2.12l-1.68-2.4-1.47-2.12-1.69-2.4c-.49-.71-1-1.42-1.48-2.12l-1.54-2.21-1.47-2.11c-.47-.66-.93-1.32-1.39-2l-1.25-1.77a.13.13,0,0,0-.14-.08h-3s-.07,0-.11,0l.07.1,1.1,1.57,1.64,2.35,1.52,2.17,1.64,2.35,1.38,2,1.49,2.13c.7,1,1.4,2,2.11,3l1.91,2.74,2,2.9a.17.17,0,0,0,.17.09Z" transform="translate(-286.03 -409.05)"/><path class="a" d="M286,409.16a7.16,7.16,0,0,1,1,1.42l1.28,1.87.95,1.38,1.29,1.88.95,1.38L292.8,419l.95,1.38,1.3,1.88.36.54-.27.32-1.4,1.62-2.06,2.4-1.81,2.11-2,2.33-1.75,2a.24.24,0,0,1-.08.06Z" transform="translate(-286.03 -409.05)"/><path class="a" d="M288.17,433.66l1-1.12,1.39-1.61,1.69-2,1.44-1.67,1.89-2.19.77-.9,0-.07c.07.11.14.19.19.28l1.73,2.52,1.11,1.61,1.59,2.32,1.09,1.59c.28.4.56.8.83,1.21Z" transform="translate(-286.03 -409.05)"/><path class="a" d="M307.14,432.14H304a.17.17,0,0,1-.17-.09l-2-2.9-1.91-2.74c-.71-1-1.41-2-2.11-3l-1.49-2.13-1.38-2-1.64-2.35-1.52-2.17-1.64-2.35-1.1-1.57-.07-.1s.07,0,.11,0h3a.13.13,0,0,1,.14.08l1.25,1.77c.46.67.92,1.33,1.39,2l1.47,2.11,1.54,2.21c.5.7,1,1.41,1.48,2.12l1.69,2.4,1.47,2.12,1.68,2.4c.5.7,1,1.41,1.49,2.12l1.38,2Z" transform="translate(-286.03 -409.05)"/></svg>